<svg width="59" height="64" viewBox="0 0 59 64" fill="none" xmlns="http://www.w3.org/2000/svg">
<path d="M23.0833 51C21.3114 51 19.875 49.5822 19.875 47.8333L19.875 25.6667C19.875 23.9178 21.3114 22.5 23.0833 22.5C24.8552 22.5 26.2917 23.9178 26.2917 25.6667L26.2917 47.8333C26.2917 49.5822 24.8552 51 23.0833 51Z" fill="#252930"/>
<path d="M32.7083 47.8333C32.7083 49.5822 34.1448 51 35.9167 51C37.6886 51 39.125 49.5822 39.125 47.8333V25.6667C39.125 23.9178 37.6886 22.5 35.9167 22.5C34.1448 22.5 32.7083 23.9178 32.7083 25.6667V47.8333Z" fill="#252930"/>
<path fill-rule="evenodd" clip-rule="evenodd" d="M17.1574 5.36275L14.7417 9.83334H3.83333C2.06142 9.83334 0.625 11.2511 0.625 13C0.625 14.7489 2.06142 16.1667 3.83333 16.1667H4.01503L6.64607 60.6844C6.74503 62.3588 8.14962 63.6667 9.84896 63.6667H49.151C50.8504 63.6667 52.255 62.3588 52.3539 60.6844L54.985 16.1667H55.1667C56.9386 16.1667 58.375 14.7489 58.375 13C58.375 11.2511 56.9386 9.83334 55.1667 9.83334H44.2583L41.8426 5.36276C40.1699 2.26705 36.9046 0.333344 33.35 0.333344H25.65C22.0954 0.333344 18.8301 2.26705 17.1574 5.36275ZM25.65 6.66668C24.4651 6.66668 23.3767 7.31125 22.8191 8.34315L22.0139 9.83334H36.9861L36.1809 8.34315C35.6233 7.31125 34.5349 6.66668 33.35 6.66668H25.65ZM48.5574 16.1667H10.4426L12.8756 57.3333H46.1244L48.5574 16.1667Z" fill="#252930"/>
</svg>
